# xmcd CD database file
#
# Track frame offsets:
#	150
#	20625
#	60825
#	86925
#	119925
#	144525
#
# Disc length: 2381 seconds
#
# Revision: 0
# Processed by: cddbd v1.4PL0 Copyright (c) Steve Scherf et al.
# Submitted via: CDex 1.40Beta9
#
DISCID=55094b06
DTITLE=GARRY MOORE - STILL LIVE [CD2)
DYEAR=1993
DGENRE=Blues
TTITLE0=TOO TIRED
TTITLE1=COLD COLD FEELING
TTITLE2=FURTHER UP THE ROAD
TTITLE3=KING OF THE BLUES
TTITLE4=STOP MESSIN AROUND
TTITLE5=WHY I SING THE BLUES
EXTD=YEAR: 1993 ID3G: 0
EXTT0=
EXTT1=
EXTT2=
EXTT3=
EXTT4=
EXTT5=
PLAYORDER=
